<?xml version="1.0" encoding="UTF-8"?>
<svg id="Layer_2" data-name="Layer 2" xmlns="http://www.w3.org/2000/svg" viewBox="0 0 393.5 304.22">
  <defs>
    <style>
      .cls-1 {
        fill: #34b1e6;
      }

      .cls-2 {
        fill: #d08c63;
      }

      .cls-3 {
        fill: #9a1d52;
      }

      .cls-4 {
        fill: #fff;
      }

      .cls-5 {
        fill: #e6c391;
      }
    </style>
  </defs>
  <g id="Layer_1-2" data-name="Layer 1">
    <g>
      <path class="cls-4" d="M393.5,239.72c0-25.5-17.98-44-42.76-44-3.12,0-6.15.29-9.07.85-.31-.78-.65-1.55-1.04-2.3-4.52-8.64-13.66-14.01-23.85-14.01h-1.49c-2.34,0-4.61.26-6.78.77-2.17-.51-4.44-.77-6.78-.77h-1.82c-5.19,0-10.1,1.44-14.26,4.01-4.2-2.57-9.19-4.01-14.58-4.01h-3.39c-.69,0-1.38.03-2.06.08,7.36-11.86,11.62-25.84,11.62-40.79,0-42.81-34.83-77.63-77.63-77.63s-77.63,34.83-77.63,77.63c0,17.09,5.56,32.9,14.96,45.74-.59-.04-1.19-.06-1.8-.06h-3.72c-9.54,0-17.79,4.68-22.63,11.92-3.79-.93-7.78-1.42-11.91-1.42-3.17,0-6.26.3-9.24.86-4.11-9.73-13.66-16.39-25.05-16.39h-10.5c-12.38,0-22.58,7.86-26,18.98-5.6,2.4-10.61,6-14.75,10.7-7.42,8.42-11.35,19.46-11.35,31.93,0,26.69,17.84,46.07,42.43,46.07,4.35,0,8.38-.63,12.08-1.74,2.23.49,4.58.75,7.01.75h6.69c3.95,0,7.68-.81,11.04-2.26,5.45,2.09,11.42,3.25,17.72,3.25,9.24,0,17.77-2.48,24.97-6.79,2.16,1.35,4.47,2.5,6.92,3.43,2.44,7.5,8.1,13.5,15.59,16.5,3.66,1.48,9.45,3.22,16.48,3.22,14.3,0,26.5-6.52,34.17-17.8,1.62.29,3.29.45,5,.45h14.71c3.09,0,6.05-.49,8.8-1.4,3.12.93,6.52,1.4,10.21,1.4h4.63c2.14,0,4.22-.24,6.2-.69,3.69,1.09,7.65,1.68,11.81,1.68s8.02-.63,11.6-1.74c2.23.49,4.57.75,7,.75h6.69c3.89,0,7.56-.78,10.88-2.19,5.4,2.05,11.31,3.18,17.55,3.18,8.49,0,15.63-2.15,21-4.57,6.31,2.99,13.38,4.57,20.81,4.57,11.79,0,21.04-4.04,26.79-7.49,10.68-6.29,15.41-18.14,12.53-29.61,1.42-3.36,2.2-7.09,2.2-11.03Z"/>
      <circle class="cls-5" cx="201.25" cy="137.82" r="53.63"/>
      <path class="cls-3" d="M70.57,194.96c-.9,0-1.79-.34-2.47-1.03-1.37-1.37-1.37-3.58,0-4.95l6.94-6.94c1.37-1.37,3.58-1.37,4.95,0,1.37,1.37,1.37,3.58,0,4.95l-6.94,6.94c-.68.68-1.58,1.03-2.47,1.03ZM90.23,175.29c-.9,0-1.79-.34-2.47-1.03-1.37-1.37-1.37-3.58,0-4.95l9.9-9.9c1.37-1.37,3.58-1.37,4.95,0,1.37,1.37,1.37,3.58,0,4.95l-9.9,9.9c-.68.68-1.58,1.03-2.47,1.03ZM112.86,152.66c-.9,0-1.79-.34-2.47-1.03-1.37-1.37-1.37-3.58,0-4.95l9.9-9.9c1.37-1.37,3.58-1.37,4.95,0,1.37,1.37,1.37,3.58,0,4.95l-9.9,9.9c-.68.68-1.58,1.03-2.47,1.03ZM135.49,130.04c-.9,0-1.79-.34-2.47-1.03-1.37-1.37-1.37-3.58,0-4.95l9.9-9.9c1.37-1.37,3.58-1.37,4.95,0,1.37,1.37,1.37,3.58,0,4.95l-9.9,9.9c-.68.68-1.58,1.03-2.47,1.03ZM158.12,107.41c-.9,0-1.79-.34-2.47-1.03-1.37-1.37-1.37-3.58,0-4.95l9.9-9.9c1.37-1.37,3.58-1.37,4.95,0,1.37,1.37,1.37,3.58,0,4.95l-9.9,9.9c-.68.68-1.58,1.03-2.47,1.03ZM180.74,84.78c-.9,0-1.79-.34-2.47-1.03-1.37-1.37-1.37-3.58,0-4.95l9.9-9.9c1.37-1.37,3.58-1.37,4.95,0,1.37,1.37,1.37,3.58,0,4.95l-9.9,9.9c-.68.68-1.58,1.03-2.47,1.03ZM203.37,62.15c-.9,0-1.79-.34-2.47-1.03-1.37-1.37-1.37-3.58,0-4.95l9.9-9.9c1.37-1.37,3.58-1.37,4.95,0,1.37,1.37,1.37,3.58,0,4.95l-9.9,9.9c-.68.68-1.58,1.03-2.47,1.03ZM226,39.53c-.9,0-1.79-.34-2.47-1.03-1.37-1.37-1.37-3.58,0-4.95l9.9-9.9c1.37-1.37,3.58-1.37,4.95,0,1.37,1.37,1.37,3.58,0,4.95l-9.9,9.9c-.68.68-1.58,1.03-2.47,1.03ZM248.63,16.9c-.9,0-1.79-.34-2.47-1.03-1.37-1.37-1.37-3.58,0-4.95l9.9-9.9c1.37-1.37,3.58-1.37,4.95,0,1.37,1.37,1.37,3.58,0,4.95l-9.9,9.9c-.68.68-1.58,1.03-2.47,1.03Z"/>
      <g>
        <path class="cls-2" d="M168.46,126.2c.56-1.3,1.43-1.86,2.79-1.86h.99c1.37,0,2.23.56,2.79,1.86l10.42,24.14c.75,1.74-.06,2.85-1.86,2.85h-1.68c-1.37,0-2.29-.62-2.79-1.92l-7.38-18.62-7.39,18.62c-.5,1.3-1.43,1.92-2.79,1.92h-1.68c-1.8,0-2.61-1.12-1.86-2.85l10.43-24.14Z"/>
        <path class="cls-2" d="M184.35,170.82c0-1.55.87-2.42,2.42-2.42h29.97c1.55,0,2.42.87,2.42,2.42v1.24c0,1.55-.87,2.42-2.42,2.42h-29.97c-1.55,0-2.42-.87-2.42-2.42v-1.24Z"/>
        <path class="cls-2" d="M228.54,126.2c.56-1.3,1.43-1.86,2.79-1.86h.99c1.37,0,2.23.56,2.79,1.86l10.42,24.14c.75,1.74-.06,2.85-1.86,2.85h-1.68c-1.37,0-2.29-.62-2.79-1.92l-7.38-18.62-7.39,18.62c-.5,1.3-1.43,1.92-2.79,1.92h-1.68c-1.8,0-2.61-1.12-1.86-2.85l10.43-24.14Z"/>
      </g>
      <g>
        <path class="cls-1" d="M57.78,256.17c0-1.16.25-1.82.25-1.9h-.17c-.33.83-3.8,7.85-13.8,7.85-11.24,0-18.43-9.01-18.43-22.07s7.85-22.07,19.26-22.07c8.51,0,11.82,5.37,12.15,5.95h.17c0-.17-.17-1.24-.17-2.98v-10.66h-3.31c-2.06,0-3.22-1.16-3.22-3.22v-1.4c0-2.07,1.16-3.22,3.22-3.22h10.5c2.07,0,3.22,1.16,3.22,3.22v45.78c0,1.24.66,1.82,1.82,1.82h.58c2.07,0,3.22,1.16,3.22,3.22v1.41c0,2.07-1.16,3.22-3.22,3.22h-6.69c-3.8,0-5.37-2.07-5.37-4.46v-.5ZM57.28,240.3c0-6.86-3.39-13.3-10.33-13.3-5.95,0-10.74,4.71-10.74,13.06s4.3,13.22,10.41,13.22c5.54,0,10.66-3.97,10.66-12.98Z"/>
        <path class="cls-1" d="M98.52,217.99c12.89,0,23.22,9.17,23.22,22.07s-10.33,22.07-23.14,22.07-23.22-9.09-23.22-22.07,10.33-22.07,23.14-22.07ZM111.08,240.06c0-7.77-5.7-13.14-12.48-13.14s-12.56,5.37-12.56,13.14,5.7,13.14,12.56,13.14,12.48-5.29,12.48-13.14Z"/>
        <path class="cls-1" d="M129.5,226.83h-3.22c-2.06,0-3.22-1.16-3.22-3.22v-1.4c0-2.07,1.16-3.22,3.22-3.22h3.55v-8.26c0-2.07,1.16-3.22,3.22-3.22h3.72c2.07,0,3.22,1.16,3.22,3.22v8.26h6.36c2.07,0,3.22,1.16,3.22,3.22v1.4c0,2.07-1.16,3.22-3.22,3.22h-6.36v17.77c0,6.28,3.88,7.52,6.78,7.85,2.56.25,3.47,1.07,3.47,3.39v2.23c0,2.48-1.4,3.47-4.3,3.47-7.52,0-16.45-4.05-16.45-15.45v-19.25Z"/>
        <path class="cls-1" d="M154.29,270.88c.74-1.98,2.31-2.15,4.3-1.57.91.33,2.15.58,3.47.58,3.39,0,6.12-1.82,7.44-4.88l1.16-2.64-14.46-35.54h-1.82c-2.07,0-3.22-1.16-3.22-3.22v-1.4c0-2.07,1.16-3.22,3.22-3.22h14.3c2.07,0,3.22,1.16,3.22,3.22v1.4c0,2.07-.91,3.22-2.48,3.22h-2.48l7.69,21.32c.74,2.07.91,4.13.91,4.38h.25c0-.25.41-2.31,1.16-4.38l7.6-21.32h-1.65c-2.07,0-3.22-1.16-3.22-3.22v-1.4c0-2.07,1.16-3.22,3.22-3.22h13.47c2.07,0,3.22,1.16,3.22,3.22v1.4c0,2.07-.91,3.22-2.4,3.22h-2.4l-15.54,39.75c-3.22,8.35-9.5,11.9-16.69,11.9-3.06,0-5.7-.74-7.52-1.49-1.9-.74-2.23-2.31-1.49-4.21l.74-1.9Z"/>
        <path class="cls-1" d="M198.5,256.5c0-2.07,1.07-3.22,3.06-3.22h3.06v-42.97h-3.3c-2.07,0-3.22-1.16-3.22-3.22v-1.4c0-2.07,1.16-3.22,3.22-3.22h10.58c2.07,0,3.22,1.16,3.22,3.22v29.25h5.54l6.86-8.1h-1.65c-2.07,0-3.22-1.16-3.22-3.22v-1.4c0-2.07,1.16-3.22,3.22-3.22h13.8c2.07,0,3.22,1.16,3.22,3.22v1.4c0,2.07-.99,3.22-2.73,3.22h-2.73l-9.17,10.83v.17c.08,0,1.57.74,3.22,3.55l5.95,10.41c.74,1.24,1.49,1.41,3.06,1.49,1.65.08,2.81,1.16,2.81,3.22v1.41c0,2.07-1.16,3.22-3.22,3.22h-4.63c-3.55,0-4.96-.58-6.61-3.64l-7.6-13.3c-.83-1.49-2.15-1.57-3.64-1.57h-2.48v10.66h1.32c2.07,0,3.22,1.16,3.22,3.22v1.41c0,2.07-1.16,3.22-3.22,3.22h-14.71c-2.06,0-3.22-1.16-3.22-3.22v-1.41Z"/>
        <path class="cls-1" d="M271.3,256.17c0-1.32.25-2.07.25-2.15h-.17c-.33.83-4.13,8.1-13.3,8.1-7.19,0-13.97-4.21-13.97-12.81,0-12.89,16.94-14.21,23.72-14.21h2.64v-1.41c0-5.37-3.39-7.27-7.77-7.27-3.55,0-6.86,1.24-9.09,2.4-1.9.91-3.39.58-4.38-1.24l-.91-1.65c-.99-1.82-.58-3.39,1.24-4.38,2.81-1.49,7.69-3.55,14.05-3.55,11.32,0,17.36,5.87,17.36,16.61v16.86c0,1.24.66,1.82,1.82,1.82h.58c2.07,0,3.22,1.16,3.22,3.22v1.41c0,2.07-1.16,3.22-3.22,3.22h-6.7c-3.88,0-5.37-2.07-5.37-4.46v-.5ZM270.56,241.46h-1.73c-4.13,0-14.13.66-14.13,7.02,0,3.14,2.23,5.79,6.12,5.79,5.7,0,9.75-6.12,9.75-11.4v-1.41ZM263.04,213.78c-2.73,0-3.55-1.82-1.9-3.97l4.3-5.37c1.07-1.32,2.23-1.9,3.88-1.9h3.39c2.89,0,3.64,1.9,1.65,3.97l-5.54,5.62c-1.16,1.24-2.31,1.65-3.97,1.65h-1.82Z"/>
        <path class="cls-1" d="M327.99,253.03c.83,1.74.58,3.22-.99,4.38-3.39,2.31-8.84,4.71-15.21,4.71-12.31,0-23.22-8.35-23.22-21.98,0-12.56,9.67-22.15,22.64-22.15,7.03,0,17.27,2.64,17.27,10.08v2.56c0,2.07-1.16,3.22-3.22,3.22h-2.64c-2.64,0-3.22-1.57-3.22-2.81,0-2.23-2.31-4.13-7.85-4.13-7.69,0-12.4,5.29-12.4,12.97,0,8.68,6.03,13.39,13.22,13.39,4.13,0,7.69-1.57,10.33-3.14,1.82-1.16,3.39-.83,4.38,1.07l.91,1.82ZM299.81,206.42c-1.49-2.15-.66-3.88,1.73-3.88h1.82c1.74,0,2.98.66,3.88,2.15l2.81,4.55h.16l2.81-4.55c.91-1.49,2.15-2.15,3.88-2.15h1.49c2.64,0,3.55,1.74,2.07,3.88l-3.55,5.29c-.99,1.49-2.15,2.07-3.88,2.07h-5.79c-1.74,0-2.89-.58-3.88-2.07l-3.55-5.29Z"/>
        <path class="cls-1" d="M369.14,253.61c.99,1.82.74,3.39-.99,4.38-2.73,1.65-7.85,4.13-14.54,4.13-13.96,0-22.64-10.08-22.64-22.07,0-12.98,8.76-22.07,21.4-22.07s18.76,8.84,18.76,20c0,1.98-.99,3.55-3.31,3.55h-26.12c.66,7.77,6.28,11.74,12.64,11.74,3.8,0,7.19-1.41,9.42-2.64,1.9-.99,3.39-.74,4.38,1.16l.99,1.82ZM360.3,235.34c-.17-5.79-3.72-9.26-8.18-9.26-5.37,0-9.17,3.72-10.17,9.26h18.35Z"/>
      </g>
      <circle class="cls-1" cx="162.45" cy="99.67" r="11.77"/>
    </g>
  </g>
</svg>