<?xml version="1.0" encoding="UTF-8"?>
<svg id="Layer_2" data-name="Layer 2" xmlns="http://www.w3.org/2000/svg" viewBox="0 0 120 120">
  <defs>
    <style>
      .cls-1 {
        fill: #939393;
      }

      .cls-2 {
        fill: #c9c9c9;
      }

      .cls-3 {
        fill: #fff;
      }
    </style>
  </defs>
  <g id="Layer_1-2" data-name="Layer 1">
    <g>
      <rect class="cls-2" width="120" height="120"/>
      <path class="cls-3" d="M61.81,57.7h-5.91v11h-13.63v-11H9.67L27,7.12h14.29l-13.71,39.33h14.7v-22.74h13.63v22.74h5.91v11.25Z"/>
      <g>
        <path class="cls-1" d="M1.6,82.07c0-1.55.87-2.42,2.42-2.42h25.44c1.55,0,2.42.87,2.42,2.42v13.4c0,1.55-.87,2.42-2.42,2.42h-1.49c-1.55,0-2.42-.87-2.42-2.42v-9.74H4.02c-1.55,0-2.42-.87-2.42-2.42v-1.24Z"/>
        <path class="cls-1" d="M32.32,109.19c0-1.55.87-2.42,2.42-2.42h29.97c1.55,0,2.42.87,2.42,2.42v1.24c0,1.55-.87,2.42-2.42,2.42h-29.97c-1.55,0-2.42-.87-2.42-2.42v-1.24Z"/>
        <path class="cls-1" d="M66.64,82.07c0-1.55.87-2.42,2.42-2.42h25.44c1.55,0,2.42.87,2.42,2.42v13.4c0,1.55-.87,2.42-2.42,2.42h-1.49c-1.55,0-2.42-.87-2.42-2.42v-9.74h-21.53c-1.55,0-2.42-.87-2.42-2.42v-1.24Z"/>
        <path class="cls-1" d="M99.72,64.08c.31-1.43,1.24-2.11,2.67-2.11h2.17c1.74,0,2.54.99,1.99,2.73l-3.23,9.68c-.43,1.3-1.43,1.99-2.79,1.99h-.74c-1.68,0-2.54-1.05-2.17-2.67l2.11-9.62ZM110.09,64.08c.31-1.43,1.18-2.11,2.61-2.11h2.23c1.74,0,2.54.99,1.99,2.73l-3.23,9.68c-.43,1.3-1.43,1.99-2.79,1.99h-.75c-1.68,0-2.54-1.05-2.17-2.67l2.11-9.62Z"/>
      </g>
    </g>
  </g>
</svg>