<?xml version="1.0" encoding="UTF-8"?>
<svg id="Layer_2" data-name="Layer 2" xmlns="http://www.w3.org/2000/svg" viewBox="0 0 120 120">
  <defs>
    <style>
      .cls-1 {
        fill: #d08c63;
      }

      .cls-2 {
        fill: #fff;
      }

      .cls-3 {
        fill: #e6c391;
      }
    </style>
  </defs>
  <g id="Layer_1-2" data-name="Layer 1">
    <g>
      <rect class="cls-3" width="120" height="120"/>
      <path class="cls-2" d="M40.48,6.22v62.48h-14.62V24.94l-10.43,4.11v-13.22l25.04-9.61Z"/>
      <g>
        <path class="cls-1" d="M18.05,70.87c.56-1.3,1.43-1.86,2.79-1.86h.99c1.37,0,2.23.56,2.79,1.86l10.42,24.14c.75,1.74-.06,2.85-1.86,2.85h-1.68c-1.37,0-2.3-.62-2.79-1.92l-7.38-18.62-7.39,18.62c-.5,1.3-1.43,1.92-2.79,1.92h-1.68c-1.8,0-2.61-1.12-1.86-2.85l10.43-24.14Z"/>
        <path class="cls-1" d="M59.94,80.68c9.68,0,17.44,6.89,17.44,16.57s-7.76,16.57-17.38,16.57-17.44-6.83-17.44-16.57,7.76-16.57,17.38-16.57ZM69.37,97.24c0-5.83-4.28-9.87-9.37-9.87s-9.43,4.03-9.43,9.87,4.28,9.87,9.43,9.87,9.37-3.97,9.37-9.87Z"/>
        <path class="cls-1" d="M95.38,70.87c.56-1.3,1.43-1.86,2.79-1.86h.99c1.37,0,2.23.56,2.79,1.86l10.42,24.14c.75,1.74-.06,2.85-1.86,2.85h-1.68c-1.37,0-2.3-.62-2.79-1.92l-7.38-18.62-7.39,18.62c-.5,1.3-1.43,1.92-2.79,1.92h-1.68c-1.8,0-2.61-1.12-1.86-2.85l10.43-24.14Z"/>
      </g>
    </g>
  </g>
</svg>