<?xml version="1.0" encoding="UTF-8"?>
<svg id="Layer_2" data-name="Layer 2" xmlns="http://www.w3.org/2000/svg" viewBox="0 0 120.1 120">
  <defs>
    <style>
      .cls-1 {
        fill: #d08c63;
      }

      .cls-2 {
        fill: #fff;
      }

      .cls-3 {
        fill: #e6c391;
      }
    </style>
  </defs>
  <g id="Layer_1-2" data-name="Layer 1">
    <g>
      <rect class="cls-3" width="120" height="120"/>
      <path class="cls-2" d="M58.4,55.4v13.3H12.83v-1.56l23.65-25.12c3.94-4.35,5.75-8.29,5.75-12.32,0-6.24-5.25-10.67-12.56-10.67-5.58,0-11.66,3.2-15.03,6.9v-13.71c3.78-3.28,11.17-5.99,18.64-5.99,13.71,0,23.73,8.62,23.73,20.61,0,6.65-2.63,12.32-8.05,18.31l-9.2,10.26h18.64Z"/>
      <g>
        <path class="cls-1" d="M39.14,78.84c.56-1.3,1.43-1.86,2.79-1.86h.99c1.37,0,2.23.56,2.79,1.86l10.42,24.14c.75,1.74-.06,2.85-1.86,2.85h-1.68c-1.37,0-2.29-.62-2.79-1.92l-7.38-18.62-7.39,18.62c-.5,1.3-1.43,1.92-2.79,1.92h-1.68c-1.8,0-2.61-1.12-1.86-2.85l10.43-24.14Z"/>
        <path class="cls-1" d="M64.9,102.3c0-1.55.87-2.42,2.42-2.42h13.84c1.55,0,2.42.87,2.42,2.42v2.05c0,1.55-.87,2.42-2.42,2.42h-13.84c-1.55,0-2.42-.87-2.42-2.42v-2.05Z"/>
        <path class="cls-1" d="M102.82,78.84c.56-1.3,1.43-1.86,2.79-1.86h.99c1.37,0,2.23.56,2.79,1.86l10.42,24.14c.75,1.74-.06,2.85-1.86,2.85h-1.68c-1.37,0-2.29-.62-2.79-1.92l-7.38-18.62-7.39,18.62c-.5,1.3-1.43,1.92-2.79,1.92h-1.68c-1.8,0-2.61-1.12-1.86-2.85l10.43-24.14Z"/>
      </g>
    </g>
  </g>
</svg>