<?xml version="1.0" encoding="UTF-8"?>
<svg id="Layer_2" data-name="Layer 2" xmlns="http://www.w3.org/2000/svg" viewBox="0 0 116.59 107.27">
  <defs>
    <style>
      .cls-1 {
        fill: #34b1e6;
      }

      .cls-2 {
        fill: #d08c63;
      }

      .cls-3 {
        fill: #e6c391;
      }
    </style>
  </defs>
  <g id="Layer_1-2" data-name="Layer 1">
    <g>
      <circle class="cls-3" cx="53.63" cy="53.63" r="53.63"/>
      <g>
        <path class="cls-2" d="M16.42,57.54c0-1.55.87-2.42,2.42-2.42h25.44c1.55,0,2.42.87,2.42,2.42v1.24c0,1.55-.87,2.42-2.42,2.42h-25.44c-1.55,0-2.42-.87-2.42-2.42v-1.24ZM16.42,70.26c0-1.55.87-2.42,2.42-2.42h25.44c1.55,0,2.42.87,2.42,2.42v1.24c0,1.55-.87,2.42-2.42,2.42h-25.44c-1.55,0-2.42-.87-2.42-2.42v-1.24Z"/>
        <path class="cls-2" d="M52.92,84.66c0-1.55.87-2.42,2.42-2.42h29.97c1.55,0,2.42.87,2.42,2.42v1.24c0,1.55-.87,2.42-2.42,2.42h-29.97c-1.55,0-2.42-.87-2.42-2.42v-1.24Z"/>
        <path class="cls-2" d="M92.88,60.58c0-6.58,5.34-11.85,11.92-11.85s11.79,5.27,11.79,11.85-5.28,11.92-11.79,11.92-11.92-5.4-11.92-11.92Z"/>
      </g>
      <circle class="cls-1" cx="14.84" cy="15.48" r="11.77"/>
    </g>
  </g>
</svg>