<?xml version="1.0" encoding="UTF-8"?>
<svg id="Layer_3" data-name="Layer 3" xmlns="http://www.w3.org/2000/svg" viewBox="0 0 143.92 107.27">
  <defs>
    <style>
      .cls-1 {
        fill: #34b1e6;
      }

      .cls-2 {
        fill: #d08c63;
      }

      .cls-3 {
        fill: #f9ed32;
      }

      .cls-4 {
        fill: #e6c391;
      }
    </style>
  </defs>
  <g id="Layer_1" data-name="Layer 1">
    <g>
      <circle class="cls-4" cx="60.78" cy="53.63" r="53.63"/>
      <circle class="cls-1" cx="21.99" cy="15.48" r="11.77"/>
      <g>
        <path class="cls-2" d="M17.38,49.35c9.68,0,17.44,6.89,17.44,16.57s-7.76,16.57-17.38,16.57S0,75.67,0,65.92s7.76-16.57,17.38-16.57ZM26.81,65.92c0-5.83-4.28-9.87-9.37-9.87s-9.43,4.03-9.43,9.87,4.28,9.87,9.43,9.87,9.37-3.97,9.37-9.87Z"/>
        <path class="cls-2" d="M37.05,84.17c0-1.55.87-2.42,2.42-2.42h29.97c1.55,0,2.42.87,2.42,2.42v1.24c0,1.55-.87,2.42-2.42,2.42h-29.97c-1.55,0-2.42-.87-2.42-2.42v-1.24Z"/>
        <path class="cls-2" d="M73.11,59.41c0-12.6,9.81-22.46,22.84-22.46s22.84,9.87,22.84,22.46-9.8,23.09-22.84,23.09-22.84-10.12-22.84-23.09ZM110.41,59.41c0-8.69-6.52-15.33-14.46-15.33s-14.46,6.64-14.46,15.33,6.52,15.95,14.46,15.95,14.46-6.89,14.46-15.95Z"/>
        <path class="cls-3" d="M125.43,65.49c0-7.88,10.24-9.93,10.24-16.26,0-2.92-2.61-5.15-6.02-5.15-1.86,0-3.48.68-4.59,1.24-1.43.75-2.79.75-3.72-.62l-1.06-1.55c-.93-1.37-.99-2.54.43-3.48,1.86-1.24,5.21-2.85,9.62-2.85,7.01,0,13.59,4.34,13.59,11.67,0,9.74-10.05,11.42-10.8,17.69l-.12,1.05c-.31,1.3-.99,1.8-2.48,1.8h-2.48c-1.68,0-2.61-.87-2.61-2.54v-.99ZM125.43,76.97c0-1.68.93-2.61,2.61-2.61h2.48c1.68,0,2.54.93,2.54,2.61v2.17c0,1.74-.87,2.61-2.54,2.61h-2.48c-1.68,0-2.61-.87-2.61-2.61v-2.17Z"/>
      </g>
    </g>
  </g>
</svg>