<?xml version="1.0" encoding="UTF-8"?>
<svg id="Layer_2" data-name="Layer 2" xmlns="http://www.w3.org/2000/svg" viewBox="0 0 107.27 107.27">
  <defs>
    <style>
      .cls-1 {
        fill: #34b1e6;
      }

      .cls-2 {
        fill: #f9ed32;
      }

      .cls-3 {
        fill: #212429;
      }
    </style>
  </defs>
  <g id="Layer_1-2" data-name="Layer 1">
    <g>
      <circle class="cls-2" cx="53.63" cy="53.63" r="53.63"/>
      <g>
        <path class="cls-3" d="M17.84,40.8c0-1.55.81-2.42,2.36-2.42h3.35c1.55,0,2.42.87,2.36,2.42l-.56,26.5c-.06,1.61-.93,2.42-2.48,2.42h-2.05c-1.55,0-2.48-.81-2.48-2.42l-.5-26.5ZM18.08,77.47c0-1.55.87-2.42,2.42-2.42h2.79c1.55,0,2.42.87,2.42,2.42v2.54c0,1.55-.87,2.42-2.42,2.42h-2.79c-1.55,0-2.42-.87-2.42-2.42v-2.54Z"/>
        <path class="cls-3" d="M33.29,84.86c0-1.55.87-2.42,2.42-2.42h29.97c1.55,0,2.42.87,2.42,2.42v1.24c0,1.55-.87,2.42-2.42,2.42h-29.97c-1.55,0-2.42-.87-2.42-2.42v-1.24Z"/>
        <path class="cls-3" d="M75.55,40.8c0-1.55.81-2.42,2.36-2.42h3.35c1.55,0,2.42.87,2.36,2.42l-.56,26.5c-.06,1.61-.93,2.42-2.48,2.42h-2.05c-1.55,0-2.48-.81-2.48-2.42l-.5-26.5ZM75.8,77.47c0-1.55.87-2.42,2.42-2.42h2.79c1.55,0,2.42.87,2.42,2.42v2.54c0,1.55-.87,2.42-2.42,2.42h-2.79c-1.55,0-2.42-.87-2.42-2.42v-2.54Z"/>
      </g>
      <circle class="cls-1" cx="14.84" cy="15.48" r="11.77"/>
    </g>
  </g>
</svg>