<?xml version="1.0" encoding="UTF-8"?>
<svg id="Layer_2" data-name="Layer 2" xmlns="http://www.w3.org/2000/svg" viewBox="0 0 126.19 107.27">
  <defs>
    <style>
      .cls-1 {
        fill: #34b1e6;
      }

      .cls-2 {
        fill: #d08c63;
      }

      .cls-3 {
        fill: #e6c391;
      }
    </style>
  </defs>
  <g id="Layer_1-2" data-name="Layer 1">
    <g>
      <circle class="cls-3" cx="53.63" cy="53.63" r="53.63"/>
      <g>
        <path class="cls-2" d="M5.49,75.14c0-1.55.81-2.42,2.3-2.42h2.29v-18.49c0-.87-.5-1.37-1.37-1.37h-1.12c-1.55,0-2.42-.87-2.42-2.42v-1.06c0-1.55.87-2.42,2.42-2.42h5.9c2.79,0,4.1,1.3,4.1,3.54v1.43c0,.68-.12,1.3-.12,1.37h.12c.37-.99,3.72-7.07,11.67-7.07,6.76,0,10.61,3.66,10.61,12.04v14.46h2.17c1.55,0,2.42.87,2.42,2.42v1.06c0,1.55-.87,2.42-2.42,2.42h-7.57c-1.55,0-2.42-.87-2.42-2.42v-16.32c0-3.85-1.05-6.45-5.03-6.45-5.71,0-9.06,5.46-9.06,10.98v8.32h2.11c1.55,0,2.42.87,2.42,2.42v1.06c0,1.55-.87,2.42-2.42,2.42H7.91c-1.55,0-2.42-.87-2.42-2.42v-1.06Z"/>
        <path class="cls-2" d="M47.87,81.03c0-1.55.87-2.42,2.42-2.42h29.97c1.55,0,2.42.87,2.42,2.42v1.24c0,1.55-.87,2.42-2.42,2.42h-29.97c-1.55,0-2.42-.87-2.42-2.42v-1.24Z"/>
        <path class="cls-2" d="M87.22,75.14c0-1.55.81-2.42,2.3-2.42h2.29v-18.49c0-.87-.5-1.37-1.37-1.37h-1.12c-1.55,0-2.42-.87-2.42-2.42v-1.06c0-1.55.87-2.42,2.42-2.42h5.9c2.79,0,4.1,1.3,4.1,3.54v1.43c0,.68-.12,1.3-.12,1.37h.12c.37-.99,3.72-7.07,11.67-7.07,6.76,0,10.61,3.66,10.61,12.04v14.46h2.17c1.55,0,2.42.87,2.42,2.42v1.06c0,1.55-.87,2.42-2.42,2.42h-7.57c-1.55,0-2.42-.87-2.42-2.42v-16.32c0-3.85-1.05-6.45-5.03-6.45-5.71,0-9.06,5.46-9.06,10.98v8.32h2.11c1.55,0,2.42.87,2.42,2.42v1.06c0,1.55-.87,2.42-2.42,2.42h-12.16c-1.55,0-2.42-.87-2.42-2.42v-1.06Z"/>
      </g>
      <circle class="cls-1" cx="14.84" cy="15.48" r="11.77"/>
    </g>
  </g>
</svg>