<?xml version="1.0" encoding="UTF-8"?>
<svg id="Layer_2" data-name="Layer 2" xmlns="http://www.w3.org/2000/svg" viewBox="0 0 107.27 107.27">
  <defs>
    <style>
      .cls-1 {
        fill: #34b1e6;
      }

      .cls-2 {
        fill: #d08c63;
      }

      .cls-3 {
        fill: #e6c391;
      }
    </style>
  </defs>
  <g id="Layer_1-2" data-name="Layer 1">
    <g>
      <circle class="cls-3" cx="53.63" cy="53.63" r="53.63"/>
      <g>
        <path class="cls-2" d="M12.26,72.43c0-6.58,5.34-11.85,11.92-11.85s11.79,5.27,11.79,11.85-5.28,11.92-11.79,11.92-11.92-5.4-11.92-11.92Z"/>
        <path class="cls-2" d="M45.96,71.56c-1.3-.93-1.43-2.17-.43-3.41l3.6-4.28v-.12l-5.4-1.3c-1.55-.37-2.17-1.49-1.68-2.98l.62-1.92c.5-1.49,1.61-2.11,3.1-1.49l5.15,2.11-.37-5.65c-.12-1.61.68-2.48,2.3-2.48h2.11c1.61,0,2.48.87,2.36,2.48l-.43,5.65,5.28-2.11c1.49-.62,2.61-.06,3.1,1.43l.62,1.92c.5,1.49-.12,2.61-1.68,2.98l-5.46,1.37v.12l3.6,4.22c1.05,1.24.87,2.42-.43,3.41l-1.55,1.18c-1.3.99-2.54.75-3.41-.62l-2.92-4.72h-.12l-2.98,4.72c-.87,1.37-2.05,1.61-3.35.68l-1.61-1.18Z"/>
        <path class="cls-2" d="M71.9,72.43c0-6.58,5.34-11.85,11.92-11.85s11.79,5.27,11.79,11.85-5.28,11.92-11.79,11.92-11.92-5.4-11.92-11.92Z"/>
      </g>
      <circle class="cls-1" cx="14.84" cy="15.48" r="11.77"/>
    </g>
  </g>
</svg>