<?xml version="1.0" encoding="UTF-8"?>
<svg id="Layer_2" data-name="Layer 2" xmlns="http://www.w3.org/2000/svg" viewBox="0 0 113.34 107.27">
  <defs>
    <style>
      .cls-1 {
        fill: #34b1e6;
      }

      .cls-2 {
        fill: #d08c63;
      }

      .cls-3 {
        fill: #e6c391;
      }
    </style>
  </defs>
  <g id="Layer_1-2" data-name="Layer 1">
    <g>
      <circle class="cls-3" cx="59.71" cy="53.63" r="53.63"/>
      <g>
        <path class="cls-2" d="M10.7,51.89c.56-1.3,1.43-1.86,2.79-1.86h.99c1.37,0,2.23.56,2.79,1.86l10.42,24.14c.75,1.74-.06,2.85-1.86,2.85h-1.68c-1.37,0-2.3-.62-2.79-1.92l-7.38-18.62-7.39,18.62c-.5,1.3-1.43,1.92-2.79,1.92h-1.68c-1.8,0-2.61-1.12-1.86-2.85l10.43-24.14Z"/>
        <path class="cls-2" d="M52.59,61.7c9.68,0,17.44,6.89,17.44,16.57s-7.76,16.57-17.38,16.57-17.44-6.83-17.44-16.57,7.76-16.57,17.38-16.57ZM62.03,78.27c0-5.83-4.28-9.87-9.37-9.87s-9.43,4.03-9.43,9.87,4.28,9.87,9.43,9.87,9.37-3.97,9.37-9.87Z"/>
        <path class="cls-2" d="M88.03,51.89c.56-1.3,1.43-1.86,2.79-1.86h.99c1.37,0,2.23.56,2.79,1.86l10.42,24.14c.75,1.74-.06,2.85-1.86,2.85h-1.68c-1.37,0-2.3-.62-2.79-1.92l-7.38-18.62-7.39,18.62c-.5,1.3-1.43,1.92-2.79,1.92h-1.68c-1.8,0-2.61-1.12-1.86-2.85l10.43-24.14Z"/>
      </g>
      <circle class="cls-1" cx="20.91" cy="15.48" r="11.77"/>
    </g>
  </g>
</svg>