<?xml version="1.0" encoding="UTF-8"?>
<svg id="Layer_2" data-name="Layer 2" xmlns="http://www.w3.org/2000/svg" viewBox="0 0 107.27 107.27">
  <defs>
    <style>
      .cls-1 {
        fill: #34b1e6;
      }

      .cls-2 {
        fill: #f15a29;
      }

      .cls-3 {
        fill: #fff;
      }
    </style>
  </defs>
  <g id="Layer_1-2" data-name="Layer 1">
    <g>
      <circle class="cls-2" cx="53.63" cy="53.63" r="53.63"/>
      <g>
        <path class="cls-3" d="M15.33,87.33c0-1.37.62-2.3,1.86-2.79l19.67-8.13v-.12l-19.67-8.13c-1.24-.5-1.86-1.43-1.86-2.79v-1.74c0-1.8,1.18-2.61,2.86-1.86l25.2,11.23c1.24.56,1.8,1.43,1.8,2.79v1.12c0,1.37-.56,2.23-1.8,2.79l-25.2,11.23c-1.68.75-2.86-.06-2.86-1.86v-1.74Z"/>
        <path class="cls-3" d="M52.88,88.13c.37-1.37,1.3-2.05,2.73-2.05h2.67c1.8,0,2.61,1.06,1.92,2.79l-4.4,10.74c-.5,1.3-1.43,1.86-2.79,1.86h-1.12c-1.74,0-2.54-1.05-2.05-2.73l3.04-10.61Z"/>
        <path class="cls-3" d="M67.03,75.78c0-1.37.56-2.23,1.8-2.79l25.2-11.23c1.68-.74,2.85.06,2.85,1.86v1.74c0,1.37-.62,2.3-1.86,2.79l-19.67,8.13v.12l19.67,8.13c1.24.5,1.86,1.43,1.86,2.79v1.74c0,1.8-1.18,2.61-2.85,1.86l-25.2-11.23c-1.24-.56-1.8-1.43-1.8-2.79v-1.12Z"/>
      </g>
      <circle class="cls-1" cx="14.84" cy="15.48" r="11.77"/>
    </g>
  </g>
</svg>