<?xml version="1.0" encoding="UTF-8"?>
<svg id="Layer_2" data-name="Layer 2" xmlns="http://www.w3.org/2000/svg" viewBox="0 0 114.46 107.27">
  <defs>
    <style>
      .cls-1 {
        fill: #34b1e6;
      }

      .cls-2 {
        fill: #d08c63;
      }

      .cls-3 {
        fill: #e6c391;
      }
    </style>
  </defs>
  <g id="Layer_1-2" data-name="Layer 1">
    <g>
      <circle class="cls-3" cx="60.83" cy="53.63" r="53.63"/>
      <g>
        <path class="cls-2" d="M17.38,61.7c9.68,0,17.44,6.89,17.44,16.57s-7.76,16.57-17.38,16.57S0,88.01,0,78.27s7.76-16.57,17.38-16.57ZM26.81,78.27c0-5.83-4.28-9.87-9.37-9.87s-9.43,4.03-9.43,9.87,4.28,9.87,9.43,9.87,9.37-3.97,9.37-9.87Z"/>
        <path class="cls-2" d="M40.15,75.35c0-1.55.87-2.42,2.42-2.42h13.84c1.55,0,2.42.87,2.42,2.42v2.05c0,1.55-.87,2.42-2.42,2.42h-13.84c-1.55,0-2.42-.87-2.42-2.42v-2.05Z"/>
        <path class="cls-2" d="M64.67,71.75c0-12.6,9.81-22.46,22.84-22.46s22.84,9.87,22.84,22.46-9.8,23.09-22.84,23.09-22.84-10.12-22.84-23.09ZM101.97,71.75c0-8.69-6.52-15.33-14.46-15.33s-14.46,6.64-14.46,15.33,6.52,15.95,14.46,15.95,14.46-6.89,14.46-15.95Z"/>
      </g>
      <circle class="cls-1" cx="22.03" cy="15.48" r="11.77"/>
    </g>
  </g>
</svg>