<?xml version="1.0" encoding="UTF-8"?>
<svg id="Layer_2" data-name="Layer 2" xmlns="http://www.w3.org/2000/svg" viewBox="0 0 107.27 107.27">
  <defs>
    <style>
      .cls-1 {
        fill: #34b1e6;
      }

      .cls-2 {
        fill: #d08c63;
      }

      .cls-3 {
        fill: #e6c391;
      }
    </style>
  </defs>
  <g id="Layer_1" data-name="Layer 1">
    <g>
      <circle class="cls-3" cx="53.63" cy="53.63" r="53.63"/>
      <circle class="cls-1" cx="14.84" cy="15.48" r="11.77"/>
      <g>
        <path class="cls-2" d="M9.19,71.22c-3.72,0-6.7-3.04-6.7-6.76s2.98-6.7,6.7-6.7,6.76,2.98,6.76,6.7-3.16,6.76-6.76,6.76ZM4.41,64.46c0,2.67,2.17,4.84,4.78,4.84s4.84-2.17,4.84-4.84-2.17-4.78-4.84-4.78-4.78,2.3-4.78,4.78Z"/>
        <path class="cls-2" d="M65.35,91.14c0-1.55.87-2.42,2.42-2.42h13.84c1.55,0,2.42.87,2.42,2.42v2.05c0,1.55-.87,2.42-2.42,2.42h-13.84c-1.55,0-2.42-.87-2.42-2.42v-2.05Z"/>
        <path class="cls-2" d="M96.51,71.22c-3.72,0-6.7-3.04-6.7-6.76s2.98-6.7,6.7-6.7,6.76,2.98,6.76,6.7-3.16,6.76-6.76,6.76ZM91.73,64.46c0,2.67,2.17,4.84,4.78,4.84s4.84-2.17,4.84-4.84-2.17-4.78-4.84-4.78-4.78,2.3-4.78,4.78Z"/>
      </g>
    </g>
  </g>
</svg>