<?xml version="1.0" encoding="UTF-8"?>
<svg id="Layer_2" data-name="Layer 2" xmlns="http://www.w3.org/2000/svg" viewBox="0 0 108.27 107.27">
  <defs>
    <style>
      .cls-1 {
        fill: #34b1e6;
      }

      .cls-2 {
        fill: #c7eafb;
      }

      .cls-3 {
        fill: #2e3192;
      }
    </style>
  </defs>
  <g id="Layer_1-2" data-name="Layer 1">
    <g>
      <circle class="cls-2" cx="53.63" cy="53.63" r="53.63"/>
      <g>
        <path class="cls-3" d="M14.03,75.35c0-1.55.87-2.42,2.42-2.42h13.84c1.55,0,2.42.87,2.42,2.42v2.05c0,1.55-.87,2.42-2.42,2.42h-13.84c-1.55,0-2.42-.87-2.42-2.42v-2.05Z"/>
        <path class="cls-3" d="M38.11,96.51c0-1.55.87-2.42,2.42-2.42h29.97c1.55,0,2.42.87,2.42,2.42v1.24c0,1.55-.87,2.42-2.42,2.42h-29.97c-1.55,0-2.42-.87-2.42-2.42v-1.24Z"/>
        <path class="cls-3" d="M90.99,51.89c.56-1.3,1.43-1.86,2.79-1.86h.99c1.37,0,2.23.56,2.79,1.86l10.42,24.14c.75,1.74-.06,2.85-1.86,2.85h-1.68c-1.37,0-2.29-.62-2.79-1.92l-7.38-18.62-7.39,18.62c-.5,1.3-1.43,1.92-2.79,1.92h-1.68c-1.8,0-2.61-1.12-1.86-2.85l10.43-24.14Z"/>
      </g>
      <circle class="cls-1" cx="14.84" cy="15.48" r="11.77"/>
    </g>
  </g>
</svg>