<?xml version="1.0" encoding="UTF-8"?>
<svg id="Layer_2" data-name="Layer 2" xmlns="http://www.w3.org/2000/svg" viewBox="0 0 119.74 107.27">
  <defs>
    <style>
      .cls-1 {
        fill: #34b1e6;
      }

      .cls-2 {
        fill: #d08c63;
      }

      .cls-3 {
        fill: #e6c391;
      }
    </style>
  </defs>
  <g id="Layer_1" data-name="Layer 1">
    <g>
      <circle class="cls-3" cx="66.11" cy="53.63" r="53.63"/>
      <g>
        <path class="cls-2" d="M2.38,69.46c-1.55,0-2.54-.93-2.36-2.54.74-5.9,4.03-8.75,9.37-8.75,6.27,0,7.32,5.65,11.42,5.65,1.99,0,3.17-1.37,3.66-3.16.37-1.43,1.06-2.23,2.54-2.23h1.43c1.55,0,2.54.93,2.36,2.54-.74,5.9-4.03,8.75-9.37,8.75-6.21,0-7.26-5.58-11.42-5.58-1.99,0-3.04,1.3-3.54,3.1-.37,1.43-1.12,2.23-2.61,2.23h-1.49Z"/>
        <path class="cls-2" d="M36.7,84.23c0-1.55.87-2.42,2.42-2.42h29.97c1.55,0,2.42.87,2.42,2.42v1.24c0,1.55-.87,2.42-2.42,2.42h-29.97c-1.55,0-2.42-.87-2.42-2.42v-1.24Z"/>
        <path class="cls-2" d="M89.58,39.62c.56-1.3,1.43-1.86,2.79-1.86h.99c1.37,0,2.23.56,2.79,1.86l10.42,24.14c.75,1.74-.06,2.85-1.86,2.85h-1.68c-1.37,0-2.3-.62-2.79-1.92l-7.38-18.62-7.39,18.62c-.5,1.3-1.43,1.92-2.79,1.92h-1.68c-1.8,0-2.61-1.12-1.86-2.85l10.43-24.14Z"/>
      </g>
      <circle class="cls-1" cx="27.31" cy="15.48" r="11.77"/>
    </g>
  </g>
</svg>