<?xml version="1.0" encoding="UTF-8"?>
<svg id="Layer_2" data-name="Layer 2" xmlns="http://www.w3.org/2000/svg" viewBox="0 0 107.27 107.27">
  <defs>
    <style>
      .cls-1 {
        fill: #34b1e6;
      }

      .cls-2 {
        fill: #f9ed32;
      }

      .cls-3 {
        fill: #212429;
      }
    </style>
  </defs>
  <g id="Layer_1" data-name="Layer 1">
    <g>
      <circle class="cls-2" cx="53.63" cy="53.63" r="53.63"/>
      <circle class="cls-1" cx="14.84" cy="15.48" r="11.77"/>
      <g>
        <path class="cls-3" d="M13.78,53.27c6.08,0,10.92,4.28,10.92,10.36s-4.84,10.49-10.86,10.49-10.92-4.34-10.92-10.49,4.9-10.36,10.86-10.36ZM21.41,77.22c1.55,0,2.42.75,2.42,2.11s-.87,2.11-2.42,2.11H6.27c-1.55,0-2.42-.75-2.42-2.11s.87-2.11,2.42-2.11h15.14ZM19.05,63.63c0-3.23-2.36-5.46-5.21-5.46s-5.28,2.23-5.28,5.46,2.36,5.52,5.28,5.52,5.21-2.23,5.21-5.52Z"/>
        <path class="cls-3" d="M30.16,75.61c0-12.6,9.8-22.46,22.84-22.46s22.84,9.87,22.84,22.46-9.8,23.09-22.84,23.09-22.84-10.12-22.84-23.09ZM67.46,75.61c0-8.69-6.52-15.33-14.46-15.33s-14.46,6.64-14.46,15.33,6.52,15.95,14.46,15.95,14.46-6.89,14.46-15.95Z"/>
        <path class="cls-3" d="M92.16,53.27c6.08,0,10.92,4.28,10.92,10.36s-4.84,10.49-10.86,10.49-10.92-4.34-10.92-10.49,4.9-10.36,10.86-10.36ZM99.79,77.22c1.55,0,2.42.75,2.42,2.11s-.87,2.11-2.42,2.11h-15.14c-1.55,0-2.42-.75-2.42-2.11s.87-2.11,2.42-2.11h15.14ZM97.44,63.63c0-3.23-2.36-5.46-5.21-5.46s-5.28,2.23-5.28,5.46,2.36,5.52,5.28,5.52,5.21-2.23,5.21-5.52Z"/>
      </g>
    </g>
  </g>
</svg>